<svg xmlns="http://www.w3.org/2000/svg" viewBox="0 0 357.82 357.88"><defs><style>.cls-1{fill:#261942;}.cls-2{fill:#512e89;stroke:#fff;stroke-miterlimit:10;stroke-width:3px;}.cls-3{fill:#edc66d;}.cls-4{fill:#fff;}</style></defs><g id="Layer_2" data-name="Layer 2"><g id="Layer_2-2" data-name="Layer 2"><path class="cls-1" d="M351.35,214.1h0a28.05,28.05,0,0,0-2.21-2.41l-9.45-10.29a23.18,23.18,0,0,0-17.51-8h-105A23.31,23.31,0,0,0,194,216.76V322.1a23.34,23.34,0,0,0,8.59,18.12l8.89,8.12a28.47,28.47,0,0,0,21.29,9.54h96.49a28.67,28.67,0,0,0,28.61-28.72V232.29A28.63,28.63,0,0,0,351.35,214.1Z"/><path class="cls-1" d="M244.9,22.12,227.46,7A28.69,28.69,0,0,0,210.32,1.5H27.92C13.33,1.5,1.5,11.81,1.5,24.52V128.36a22.36,22.36,0,0,0,6.73,15.31c4,3.72,18.84,16.43,18.84,16.43a28.63,28.63,0,0,0,17.39,5.7H226.87c14.59,0,26.42-10.31,26.42-23V38.93A21.7,21.7,0,0,0,244.9,22.12Z"/><rect class="cls-2" x="193.57" y="193.57" width="149.88" height="149.88" rx="23.02"/><rect class="cls-2" x="1.5" y="1.5" width="235.24" height="149.88" rx="23.02"/><polygon class="cls-3" points="305.26 114.33 323.47 114.33 323.47 84.05 349.82 84.05 349.82 67.58 323.47 67.58 323.47 38.55 305.26 38.55 305.26 67.58 278.91 67.58 278.91 84.05 305.26 84.05 305.26 114.33"/><path class="cls-4" d="M39.55,75.65h29.5l4.23,11.66H90L63.48,18.5H45.12L18.5,87.31H35.21ZM54.3,33.15,65,62.76H43.57Z"/><polygon class="cls-4" points="145.28 74.42 116.19 74.42 116.19 18.5 101.54 18.5 101.54 87.31 145.28 87.31 145.28 74.42"/><polygon class="cls-4" points="166.23 87.31 180.98 87.31 180.98 31.39 201 31.39 201 18.5 146.11 18.5 146.11 31.39 166.23 31.39 166.23 87.31"/><path class="cls-4" d="M240.39,268.86a30.17,30.17,0,0,1-21.87-9.28l-8,11.14c6.4,6.5,15.89,10.93,29.09,10.93,18.57,0,27.55-9.49,27.55-22.07,0-25.69-39.51-18.37-39.51-29.3,0-4.13,3.51-6.91,9.8-6.91a29.55,29.55,0,0,1,20,7.53l8.15-10.73c-6.81-6.3-15.88-9.6-26.82-9.6-16.2,0-26.1,9.49-26.1,21,0,25.89,39.61,17.53,39.61,29.71C252.35,265.15,248.43,268.86,240.39,268.86Z"/><path class="cls-1" d="M159.29,213.92h0a28.29,28.29,0,0,0-2.22-2.42l-9.47-10.29a23.2,23.2,0,0,0-17.56-8H24.82A23.35,23.35,0,0,0,1.5,216.58V322a23.33,23.33,0,0,0,8.61,18.13L19,348.31a28.58,28.58,0,0,0,21.34,9.55h96.73a28.73,28.73,0,0,0,28.69-28.76v-97A28.69,28.69,0,0,0,159.29,213.92Z"/><rect class="cls-2" x="1.5" y="193.57" width="149.88" height="149.88" rx="23.02"/><path class="cls-4" d="M55.12,281.76c15.17,0,23.83-8.36,28.79-16.92l-12.59-6.09a18.45,18.45,0,0,1-16.2,10c-12.48,0-21.56-9.6-21.56-22.6s9.08-22.59,21.56-22.59a18.66,18.66,0,0,1,16.2,10l12.59-6.19c-4.85-8.56-13.62-16.82-28.79-16.82-20.63,0-36.62,14.45-36.62,35.59S34.49,281.76,55.12,281.76Z"/></g></g></svg>