<?xml version="1.0" standalone="no"?>
<!DOCTYPE svg PUBLIC "-//W3C//DTD SVG 20010904//EN"
 "http://www.w3.org/TR/2001/REC-SVG-20010904/DTD/svg10.dtd">
<svg version="1.0" xmlns="http://www.w3.org/2000/svg"
 width="700.000000pt" height="700.000000pt" viewBox="0 0 700.000000 700.000000"
 preserveAspectRatio="xMidYMid meet">
<metadata>
Created by potrace 1.14, written by Peter Selinger 2001-2017
</metadata>
<g transform="translate(0.000000,700.000000) scale(0.100000,-0.100000)"
fill="#000000" stroke="none">
<path d="M395 6993 c-145 -30 -269 -121 -335 -244 -62 -117 -60 -69 -60 -1234
0 -671 4 -1081 10 -1116 26 -143 126 -271 265 -340 44 -22 89 -48 100 -57 11
-10 56 -48 100 -86 44 -37 106 -81 137 -97 129 -65 4 -61 2048 -62 1756 0
1858 1 1920 18 192 53 338 197 367 360 5 28 8 527 8 1110 -1 967 -3 1064 -18
1108 -39 110 -69 150 -212 272 -84 72 -125 114 -125 127 0 16 -76 107 -117
140 -21 16 -59 41 -86 54 -108 55 3 53 -2067 52 -1053 0 -1924 -2 -1935 -5z"/>
<path d="M5970 5960 l0 -285 -257 0 -257 0 -1 -157 c0 -97 4 -159 10 -161 6
-1 121 -2 258 -2 l247 2 1 -281 c1 -155 2 -288 3 -296 1 -13 28 -15 176 -15
l175 0 3 296 2 295 255 0 c162 -1 256 3 258 9 2 9 1 248 -2 297 -1 16 -22 17
-256 15 l-255 -2 -2 285 -3 285 -177 0 -178 1 0 -286z"/>
<path d="M430 3238 c-185 -18 -332 -133 -402 -314 l-23 -59 0 -1115 c0 -1050
1 -1118 18 -1167 31 -90 87 -163 203 -265 60 -53 138 -124 174 -157 69 -65
163 -119 245 -142 41 -12 232 -14 1095 -14 995 0 1048 1 1100 19 200 68 336
211 386 408 15 56 17 168 17 1053 0 545 -3 1018 -7 1051 -7 71 -45 169 -90
235 -33 49 -164 195 -281 314 -79 80 -159 127 -250 146 -46 9 -302 12 -1090
13 -566 1 -1059 -2 -1095 -6z"/>
<path d="M4247 3243 c-1 -1 -24 -3 -52 -4 -190 -11 -358 -149 -417 -343 -21
-69 -21 -78 -21 -1135 0 -586 3 -1084 7 -1106 22 -123 98 -245 193 -312 23
-16 96 -79 162 -140 82 -75 140 -120 183 -141 134 -64 82 -62 1188 -61 631 0
1025 4 1060 10 92 17 214 84 286 157 70 69 133 185 153 277 7 34 10 388 8
1090 l-2 1040 -23 59 c-30 79 -66 141 -115 196 -250 278 -282 310 -350 349
-116 66 -73 64 -1220 65 -571 1 -1039 0 -1040 -1z"/>
</g>
</svg>
